# xmcd
# Copyright (C) 1995-1998 Ti Kan
#
# Track frame offsets:
#       150
#       17238
#       34298
#       44691
#       58362
#       69983
#       82155
#       98018
#       105876
#       124987
#       133668
#       149790
#       162311
#
# Disc length: 2322 seconds
#
# Revision: 0
# Processed by: cddbd v1.5.2PL0 Copyright (c) Steve Scherf et al.
# Submitted via: CD-Transfer v1.0
#
DISCID=c309100d
DTITLE=Lynn, Loretta - Loretta Lynn
DYEAR=04
DGENRE=
TTITLE0=Van Lear Rose
TTITLE1=Portland Oregon
TTITLE2=Trouble On The Line
TTITLE3=Family Tree
TTITLE4=Have Mercy
TTITLE5=High On A Mountain Top
TTITLE6=Little Red Shoes
TTITLE7=God Makes No Mistakes
TTITLE8=Women's Prison
TTITLE9=This Old House
TTITLE10=Mrs. Leroy Brown
TTITLE11=Miss Being Mrs.
TTITLE12=Story Of My Life
EXTD=
EXTT0=
EXTT1=
EXTT2=
EXTT3=
EXTT4=
EXTT5=
EXTT6=
EXTT7=
EXTT8=
EXTT9=
EXTT10=
EXTT11=
EXTT12=
PLAYORDER=
